<?xml version="1.0" standalone="no"?>
<!DOCTYPE svg PUBLIC "-//W3C//DTD SVG 20010904//EN"
 "http://www.w3.org/TR/2001/REC-SVG-20010904/DTD/svg10.dtd">
<svg version="1.0" xmlns="http://www.w3.org/2000/svg"
 width="256.000000pt" height="256.000000pt" viewBox="0 0 256.000000 256.000000"
 preserveAspectRatio="xMidYMid meet">
<metadata>
Created by potrace 1.11, written by Peter Selinger 2001-2013
</metadata>
<g transform="translate(0.000000,256.000000) scale(0.100000,-0.100000)"
fill="#000000" stroke="none">
<path d="M1109 2549 c-496 -73 -902 -416 -1049 -887 -46 -147 -58 -238 -55
-402 2 -80 5 -154 8 -165 3 -11 8 -40 13 -65 4 -25 8 -47 9 -50 1 -3 5 -18 9
-35 4 -16 10 -37 13 -45 3 -8 7 -19 8 -25 7 -25 48 -121 79 -182 166 -329 502
-589 856 -662 30 -6 66 -14 80 -17 57 -13 318 -12 399 2 550 90 979 519 1064
1064 19 120 16 347 -7 450 -113 518 -501 904 -1014 1007 -88 17 -330 25 -413
12z"/>
</g>
</svg>
